<?xml version="1.0" standalone="no"?>
<!DOCTYPE svg PUBLIC "-//W3C//DTD SVG 1.1//EN" "http://www.w3.org/Graphics/SVG/1.1/DTD/svg11.dtd" >
<svg xmlns="http://www.w3.org/2000/svg">
<metadata></metadata>
<defs>
<font id="zona_probold" horiz-adv-x="1720" >
<font-face units-per-em="2048" ascent="1690" descent="-358" />
<missing-glyph horiz-adv-x="659" />
<glyph unicode="&#xfb01;" horiz-adv-x="1320" d="M-16 -141q4 0 16.5 -1t19.5 -1q107 0 144 53t37 196v771h-156v235h156v84q0 363 383 363q98 0 209 -29v-213q-83 10 -117 10q-60 0 -99.5 -13.5t-58.5 -40.5t-26 -57.5t-7 -74.5v-29h699v-1112h-285v877h-414v-914q0 -167 -94 -258.5t-239 -91.5q-86 0 -168 16v230z M877 1399q0 69 48 118.5t115 49.5t114.5 -49.5t47.5 -118.5t-47.5 -117.5t-114.5 -48.5q-68 0 -115.5 48.5t-47.5 117.5z" />
<glyph unicode="&#xfb02;" horiz-adv-x="1341" d="M-16 -143q93 0 136.5 18.5t62 69.5t18.5 159v773h-156v235h156q0 100 27 179t85 140.5t157 94.5t235 33q101 0 188.5 -23.5t159 -71.5t112.5 -128t41 -185v-1151h-286v1067q0 80 -14.5 132.5t-45 79t-66.5 36.5t-89 10q-114 0 -167 -47t-53 -166h299v-235h-299v-914 q0 -95 -29 -164.5t-81 -109t-116.5 -58t-143.5 -18.5q-65 0 -131 16v228z" />
<glyph unicode="&#xfb03;" horiz-adv-x="2144" d="M-16 -141q4 0 16.5 -1t19.5 -1q107 0 144 53t37 196v771h-156v235h156v43q0 96 28 166.5t78 110.5t112 58.5t138 18.5q32 0 63.5 -2.5t54.5 -6.5t45.5 -9t35 -9t24.5 -8t13 -4v-213q-96 13 -166 13q-83 0 -112.5 -30.5t-29.5 -104.5v-23h508v82q0 101 28 174t79 113.5 t112.5 59t137.5 18.5q32 0 63.5 -2.5t54.5 -6.5t45 -9t34.5 -9t24.5 -8t13 -4v-213q-83 10 -117 10q-61 0 -100 -11.5t-58 -36.5t-25.5 -53.5t-6.5 -74.5v-29h731v-1112h-287v877h-444v-875q0 -168 -94.5 -260t-239.5 -92q-94 0 -168 18v228q4 0 17 -1t20 -1 q107 0 143.5 52.5t36.5 196.5v734h-508v-914q0 -167 -94 -258.5t-239 -91.5q-86 0 -168 16v230zM1702 1399q0 69 48.5 118.5t115.5 49.5q66 0 114 -49.5t48 -118.5t-48 -117.5t-114 -48.5q-68 0 -116 48.5t-48 117.5z" />
<glyph unicode="&#xfb04;" horiz-adv-x="2134" d="M-16 -143q93 0 136.5 18.5t62 69.5t18.5 159v773h-156v235h156v49q0 168 95.5 260t240.5 92q33 0 63.5 -2t55 -6t45 -8t37.5 -8.5t27 -8t19 -6.5l9 -4v-213q-96 13 -166 13q-75 0 -108.5 -29t-33.5 -94v-35h508v49q0 179 130 288.5t374 109.5q75 0 144 -13t135 -43.5 t115 -76t78.5 -116.5t29.5 -159v-1151h-287v1067q0 141 -55.5 199.5t-159.5 58.5q-219 0 -219 -170v-43h299v-235h-299v-877q0 -168 -94.5 -260t-239.5 -92q-94 0 -168 18v228q93 0 136.5 18.5t62 69.5t18.5 159v736h-508v-914q0 -168 -94 -260t-239 -92q-94 0 -168 18v228z " />
<glyph horiz-adv-x="2048" />
<glyph horiz-adv-x="2048" />
<glyph unicode="&#xd;" horiz-adv-x="2048" />
<glyph unicode=" "  horiz-adv-x="659" />
<glyph unicode="&#x09;" horiz-adv-x="659" />
<glyph unicode="&#xa0;" horiz-adv-x="659" />
<glyph unicode="!" horiz-adv-x="571" d="M125 150q0 69 47 117t115 48t115 -48t47 -117t-47.5 -117.5t-114.5 -48.5t-114.5 48.5t-47.5 117.5zM139 1442h295l-49 -959h-199z" />
<glyph unicode="&#x22;" horiz-adv-x="917" d="M72 764l39 670h311l-201 -670h-149zM514 764l41 670h309l-198 -670h-152z" />
<glyph unicode="#" horiz-adv-x="1421" d="M61 334v246h263l51 301h-248v243h289l51 306h209l-51 -306h293l51 306h211l-52 -306h232v-243h-270l-54 -301h258v-246h-297l-57 -340h-211l57 340h-292l-58 -340h-211l60 340h-224zM535 580h292l52 301h-293z" />
<glyph unicode="$" horiz-adv-x="1339" d="M98 119l109 227q116 -56 210 -79.5t206 -28.5v360q-67 16 -117.5 31t-105.5 36t-94.5 44t-76.5 55t-60 69.5t-36.5 86t-13.5 106.5q0 185 136 305t368 129v82h129v-86q228 -16 454 -113l-121 -231q-154 64 -333 86v-346q98 -23 170 -46.5t138.5 -59t108.5 -79.5 t66.5 -105.5t24.5 -137.5q0 -194 -138 -311t-370 -129v-129h-129v129q-151 3 -262 31t-263 104zM416 1051q0 -61 50 -96.5t157 -67.5v317q-97 -3 -152 -45.5t-55 -107.5zM752 238q99 6 155 47t56 110q0 62 -51.5 99t-159.5 67v-323z" />
<glyph unicode="%" horiz-adv-x="1841" d="M80 1057q0 186 104 294.5t262 108.5t262.5 -108.5t104.5 -294.5q0 -185 -105 -294.5t-262 -109.5t-261.5 109.5t-104.5 294.5zM268 1057q0 -94 51.5 -154.5t126.5 -60.5t127 60.5t52 154.5q0 95 -52 156t-127 61t-126.5 -61t-51.5 -156zM319 0l990 1436h209l-990 -1436 h-209zM1028 385q0 186 104.5 294.5t262.5 108.5t262 -108.5t104 -294.5q0 -185 -104 -293t-262 -108t-262.5 108t-104.5 293zM1217 385q0 -94 51.5 -154.5t126.5 -60.5t126.5 60.5t51.5 154.5q0 95 -51.5 156t-126.5 61t-126.5 -61t-51.5 -156z" />
<glyph unicode="&#x26;" horiz-adv-x="1415" d="M66 403q0 122 78 223t225 165q-127 127 -127 278q0 185 114.5 288t290.5 103q182 0 297 -103t115 -257q0 -122 -81.5 -229.5t-229.5 -165.5l247 -236q24 26 52.5 63.5t43 59t44 67.5t30.5 48l205 -66q-96 -176 -219 -330l174 -170l-172 -157l-160 157q-84 -71 -184 -114 t-199 -43q-251 0 -397.5 111t-146.5 308zM350 414q0 -84 74 -142.5t199 -58.5q120 0 221 88l-322 315q-172 -69 -172 -202zM479 1061q0 -25 7.5 -50t16 -42t26 -38t27 -30t28.5 -26.5t22 -20.5q39 12 73.5 29t68 42.5t53.5 61t20 76.5q0 79 -45.5 134.5t-128.5 55.5 q-72 0 -120 -57t-48 -135z" />
<glyph unicode="'" horiz-adv-x="507" d="M86 764l41 670h315l-200 -670h-156z" />
<glyph unicode="(" horiz-adv-x="868" d="M106 612q0 281 157 503t435 364l95 -160q-199 -125 -308.5 -304.5t-109.5 -402.5q0 -225 109.5 -404t308.5 -302l-95 -162q-279 143 -435.5 363.5t-156.5 504.5z" />
<glyph unicode=")" horiz-adv-x="868" d="M78 -94q199 123 308.5 302t109.5 404q0 223 -109.5 402.5t-308.5 304.5l94 160q278 -142 435 -364t157 -503q0 -284 -156.5 -504.5t-435.5 -363.5z" />
<glyph unicode="*" horiz-adv-x="858" d="M82 952l231 119l-231 121l70 125l223 -139l-13 260h142l-12 -260l221 139l69 -125l-231 -119l231 -121l-69 -125l-221 140l12 -260h-142l13 260l-223 -140z" />
<glyph unicode="+" horiz-adv-x="1310" d="M139 639v244h400v397h237v-397h400v-244h-400v-397h-237v397h-400z" />
<glyph unicode="," horiz-adv-x="491" d="M27 -147q23 2 50.5 9.5t58.5 22t54 41t27 60.5q-57 9 -95 55.5t-38 112.5q0 68 49 114.5t113 46.5q16 0 31.5 -2.5t41 -14t43.5 -32t32 -60.5t14 -95q0 -91 -24 -161t-60 -110.5t-83.5 -66.5t-89 -34.5t-83.5 -8.5z" />
<glyph unicode="-" horiz-adv-x="835" d="M88 559v244h660v-244h-660z" />
<glyph unicode="." horiz-adv-x="485" d="M80 150q0 69 47 117t115 48t116 -48t48 -117q0 -70 -48 -119t-116 -49t-115 49t-47 119z" />
<glyph unicode="/" horiz-adv-x="1024" d="M-70 -262l908 1896h235l-907 -1896h-236z" />
<glyph unicode="0" horiz-adv-x="1495" d="M90 721q0 171 52 311.5t142 233t210 142.5t256 50q137 0 257 -50t209.5 -142.5t141 -233t51.5 -311.5t-51.5 -311.5t-141 -233t-209.5 -142.5t-257 -50q-136 0 -256 50t-210 142.5t-142 233t-52 311.5zM385 721q0 -201 106 -332t259 -131q154 0 259 130.5t105 332.5 q0 200 -105 331.5t-259 131.5q-153 0 -259 -131.5t-106 -331.5z" />
<glyph unicode="1" horiz-adv-x="835" d="M39 1337l479 107h139v-1444h-295v1157l-266 -59z" />
<glyph unicode="2" horiz-adv-x="1277" d="M82 0v109q67 84 151.5 156.5t161 121t155.5 94t142.5 86.5t114 88t78.5 108.5t28 137.5q0 121 -83.5 205t-202.5 84q-49 0 -97 -17.5t-89.5 -51.5t-67.5 -90.5t-27 -127.5v-14h-264v33q0 114 45 215t120 171t175.5 111t210.5 41q146 0 274 -70t206.5 -195.5t78.5 -274.5 q0 -108 -37 -203t-92 -157.5t-127 -117.5t-132 -85.5t-119.5 -60.5t-76.5 -42h584v-254h-1110z" />
<glyph unicode="3" horiz-adv-x="1265" d="M86 82l107 229q105 -42 206.5 -58.5t227.5 -16.5q124 0 201 58t77 146q0 27 -7.5 54.5t-29 59.5t-55.5 56t-94 40t-137 16h-113l-51 127l321 397h-598v254h1018v-135l-362 -459q184 -39 289.5 -140t105.5 -266q0 -216 -156.5 -339t-419.5 -123q-172 0 -286 20.5 t-244 79.5z" />
<glyph unicode="4" horiz-adv-x="1382" d="M37 444l860 1000h225v-885h201v-246h-201v-313h-284v313h-748zM455 559h383v445z" />
<glyph unicode="5" horiz-adv-x="1280" d="M92 78l105 231q104 -42 206.5 -57.5t231.5 -15.5q122 0 200 65t78 166q0 33 -8 64.5t-28 64t-50.5 56.5t-79.5 39.5t-110 15.5q-88 0 -206.5 -17t-151.5 -28l-119 69l14 711h961v-252h-713l-4 -295q144 39 305 39q222 0 349.5 -136t127.5 -354q0 -216 -157 -339 t-418 -123q-174 0 -289.5 19.5t-243.5 76.5z" />
<glyph unicode="6" horiz-adv-x="1357" d="M100 633q0 177 31 318t85 235.5t131.5 156.5t166.5 89.5t193 27.5q154 0 269.5 -38.5t225.5 -112.5l-127 -215q-153 112 -350 112q-81 0 -147 -35.5t-107 -94t-62.5 -130t-21.5 -147.5q45 60 146.5 98.5t222.5 38.5q72 0 142.5 -16t137.5 -52.5t117.5 -89t81.5 -132 t31 -175.5q0 -149 -79.5 -261.5t-212 -169t-296.5 -56.5q-158 0 -290 82.5t-210 232t-78 334.5zM391 477q0 -99 85.5 -172.5t201.5 -73.5q130 0 216.5 68t86.5 176q0 111 -85 177.5t-212 66.5q-121 0 -207 -67.5t-86 -174.5z" />
<glyph unicode="7" horiz-adv-x="1228" d="M96 1190v254h1071v-137l-665 -1307h-318l611 1190h-699z" />
<glyph unicode="8" horiz-adv-x="1294" d="M70 422q0 115 68.5 207.5t185.5 148.5q-78 42 -126 119t-48 168q0 100 39 177t108 124t158 70.5t194 23.5q84 0 157.5 -14.5t137 -46t108.5 -77t71 -111.5t26 -146q0 -90 -48 -166.5t-128 -120.5q118 -56 187 -148.5t69 -207.5q0 -143 -79.5 -243.5t-208 -147.5 t-292.5 -47q-121 0 -225 27.5t-183.5 80.5t-125 137.5t-45.5 192.5zM352 430q0 -96 84 -149.5t213 -53.5t213 53.5t84 149.5t-83.5 152.5t-213.5 56.5t-213.5 -56.5t-83.5 -152.5zM406 1057q0 -85 67.5 -131.5t175.5 -46.5t175 46.5t67 131.5q0 87 -68 131.5t-174 44.5 t-174.5 -44.5t-68.5 -131.5z" />
<glyph unicode="9" horiz-adv-x="1355" d="M96 971q0 153 79 265.5t209.5 168t293.5 55.5q119 0 224.5 -46.5t183.5 -130t123.5 -206t45.5 -266.5q0 -221 -45.5 -384t-128.5 -258t-190.5 -140t-241.5 -45q-154 0 -269.5 38.5t-225.5 112.5l129 215q153 -112 348 -112q166 0 254 109t94 298q-50 -67 -158.5 -102 t-234.5 -35q-87 0 -170.5 27t-156.5 80t-118 145.5t-45 210.5zM381 969q0 -111 85.5 -177.5t211.5 -66.5q118 0 202.5 67.5t84.5 174.5q0 102 -87 173.5t-200 71.5q-127 0 -212 -65.5t-85 -177.5z" />
<glyph unicode=":" horiz-adv-x="532" d="M100 150q0 69 47 117t115 48t116 -48t48 -117q0 -70 -48 -119t-116 -49t-115 49t-47 119zM100 946q0 69 47.5 117.5t114.5 48.5q68 0 116 -48.5t48 -117.5t-48 -117.5t-116 -48.5q-67 0 -114.5 48.5t-47.5 117.5z" />
<glyph unicode=";" horiz-adv-x="530" d="M45 -147q81 3 130.5 39.5t57.5 93.5q-58 11 -95.5 56.5t-37.5 107.5q0 69 48 117t114 48q73 0 118.5 -51t45.5 -145q0 -59 -9.5 -111.5t-34 -104t-62 -89t-97.5 -60.5t-137 -24zM100 946q0 69 47.5 117.5t114.5 48.5q68 0 116 -48.5t48 -117.5t-48 -117.5t-116 -48.5 q-67 0 -114.5 48.5t-47.5 117.5z" />
<glyph unicode="&#x3c;" horiz-adv-x="1294" d="M127 649v137l1006 494v-276l-623 -287l623 -283v-278z" />
<glyph unicode="=" horiz-adv-x="1296" d="M150 319v246h993v-246h-993zM150 905v246h993v-246h-993z" />
<glyph unicode="&#x3e;" horiz-adv-x="1294" d="M168 156v278l623 283l-623 287v276l1006 -494v-137z" />
<glyph unicode="?" horiz-adv-x="1105" d="M29 1356q121 62 225 83t262 21q237 0 381.5 -121.5t144.5 -332.5q0 -83 -29 -155.5t-85 -127.5t-145 -87t-201 -32l-11 -166h-202l-17 279l27 67h98q136 0 221.5 55.5t85.5 155.5q0 98 -75 155.5t-185 57.5q-221 0 -399 -80zM307 150q0 69 47 117t115 48t115 -48t47 -117 q0 -70 -47 -119t-115 -49t-115 49t-47 119z" />
<glyph unicode="@" horiz-adv-x="1976" d="M94 584q0 183 71.5 349.5t192 286.5t287.5 191.5t350 71.5t349.5 -70.5t286.5 -190.5t191.5 -285.5t71.5 -348.5q0 -203 -129 -343.5t-319 -140.5q-117 0 -185.5 52.5t-82.5 144.5q-59 -84 -145 -132t-183 -48q-121 0 -213.5 60.5t-139 156t-46.5 207.5q0 136 60 262 t169 206.5t238 80.5q103 0 181 -53t120 -140l22 152l232 -37q-58 -363 -78 -549q-9 -45 -9 -78q0 -69 31.5 -114.5t93.5 -45.5q68 0 122.5 33.5t86.5 87.5t49 115t17 121q0 159 -63 304.5t-168.5 251t-252 168t-307.5 62.5t-307 -62.5t-252 -168t-168.5 -251.5t-62.5 -306 q0 -214 106 -396t288 -287.5t396 -105.5q289 0 512 187q14 -14 25.5 -26.5t18.5 -20t13 -13.5t9 -9.5t5 -6t3 -3.5t2 -1q-121 -105 -271.5 -162t-316.5 -57q-183 0 -350 71.5t-287.5 192t-192 287.5t-71.5 350zM705 580q0 -90 55 -151.5t139 -61.5q98 0 172 79t74 193 q0 88 -56.5 147.5t-140.5 59.5q-97 0 -170 -76.5t-73 -189.5z" />
<glyph unicode="A" horiz-adv-x="1572" d="M25 0l688 1444h145l690 -1444h-309l-131 293h-645l-129 -293h-309zM567 537h437l-220 477z" />
<glyph unicode="B" horiz-adv-x="1449" d="M150 0v1444h634q129 0 221.5 -93.5t92.5 -226.5q0 -64 -29 -123.5t-78 -89.5q170 -23 279.5 -152.5t109.5 -301.5q0 -91 -28.5 -173t-82 -145.5t-137.5 -101t-188 -37.5h-794zM434 940h264q68 0 103 37.5t35 87.5q0 54 -43 89.5t-117 35.5h-242v-250zM436 254h348 q146 0 216.5 63t70.5 170q0 97 -72.5 166.5t-212.5 69.5h-350v-469z" />
<glyph unicode="C" horiz-adv-x="1519" d="M92 721q0 150 60.5 287t162.5 236t243 157.5t296 58.5q178 0 333 -73.5t263 -202.5l-227 -193q-62 89 -159 140t-210 51q-193 0 -326 -129t-133 -332q0 -201 133.5 -331t325.5 -130q113 0 210 51t159 140l227 -193q-108 -128 -263 -201t-333 -73q-155 0 -296 58t-243 157 t-162.5 235.5t-60.5 286.5z" />
<glyph unicode="D" horiz-adv-x="1540" d="M150 0v1444h571q197 0 364.5 -97t265 -263.5t97.5 -362.5q0 -189 -90 -355t-247.5 -266t-342.5 -100h-618zM434 268h309q112 0 208.5 62.5t152 167t55.5 223.5q0 188 -128.5 321.5t-309.5 133.5h-287v-908z" />
<glyph unicode="E" horiz-adv-x="1343" d="M150 0v1444h1064v-254h-780v-367h653v-245h-653v-324h823v-254h-1107z" />
<glyph unicode="F" horiz-adv-x="1306" d="M150 0v1444h1087v-254h-803v-514h690v-254h-690v-422h-284z" />
<glyph unicode="G" horiz-adv-x="1595" d="M92 721q0 201 103 370.5t279 268t384 98.5q351 0 578 -207l-185 -204q-153 137 -393 137q-193 0 -330 -136t-137 -327q0 -200 136.5 -338.5t330.5 -138.5q188 0 336 98v135h-367v246h660v-528q-123 -99 -285 -155t-344 -56q-208 0 -384 98.5t-279 268t-103 370.5z" />
<glyph unicode="H" horiz-adv-x="1536" d="M150 0v1444h284v-703h666v703h286v-1444h-286v489h-666v-489h-284z" />
<glyph unicode="I" horiz-adv-x="604" d="M156 0v1444h295v-1444h-295z" />
<glyph unicode="J" horiz-adv-x="1183" d="M29 440l252 25q21 -93 86 -150t161 -57q105 0 168.5 70.5t63.5 177.5v938h295v-854q0 -182 -55 -316t-173 -212t-290 -78q-197 0 -342.5 131.5t-165.5 324.5z" />
<glyph unicode="K" horiz-adv-x="1464" d="M150 0v1444h284v-694l633 694h354l-630 -713l649 -731h-385l-455 504l-166 -176v-328h-284z" />
<glyph unicode="L" horiz-adv-x="1245" d="M150 0v1444h292v-1198h744v-246h-1036z" />
<glyph unicode="M" horiz-adv-x="1781" d="M150 0v1444h143l598 -828l598 828h143v-1444h-295v799l-446 -627l-449 627v-799h-292z" />
<glyph unicode="N" horiz-adv-x="1597" d="M150 0v1444h143l860 -909v909h295v-1444h-143l-863 909v-909h-292z" />
<glyph unicode="O" d="M90 721q0 201 103 370.5t279.5 268t385.5 98.5q210 0 386.5 -98.5t279 -268t102.5 -370.5t-102.5 -370.5t-279 -268t-386.5 -98.5q-209 0 -385.5 98.5t-279.5 268t-103 370.5zM391 721q0 -126 62.5 -232.5t170 -168.5t234.5 -62t235 62t171 168.5t63 232.5 q0 125 -63 231.5t-171 169t-235 62.5q-193 0 -330 -136t-137 -327z" />
<glyph unicode="P" horiz-adv-x="1366" d="M150 0v1444h593q123 0 220.5 -28.5t161.5 -76.5t106 -115.5t60 -141.5t18 -158q0 -145 -45 -252.5t-129.5 -172.5t-196 -96.5t-252.5 -31.5h-244v-371h-292zM442 614h215q170 0 257 77.5t87 209.5q0 59 -16.5 109t-50.5 91.5t-95 65t-143 23.5h-254v-576z" />
<glyph unicode="Q" d="M90 721q0 201 103 370.5t279.5 268t385.5 98.5t385.5 -98.5t279.5 -268t103 -370.5q0 -253 -174 -455l152 -127l-136 -166l-170 144q-193 -133 -440 -133q-209 0 -385.5 98.5t-279.5 268t-103 370.5zM389 721q0 -192 137 -327.5t332 -135.5q123 0 215 53l-94 80l135 166 l111 -94q100 115 100 258q0 191 -137 327t-330 136q-128 0 -236 -62.5t-170.5 -169t-62.5 -231.5z" />
<glyph unicode="R" horiz-adv-x="1439" d="M150 0v1444h636q123 0 220.5 -28.5t161.5 -76.5t106 -115.5t60 -141.5t18 -158q0 -368 -293 -494l336 -430h-351l-278 373q-16 -2 -55 -2h-269v-371h-292zM442 612h258q169 0 256.5 78.5t87.5 210.5q0 59 -16.5 109t-50.5 91.5t-95 65t-143 23.5h-297v-578z" />
<glyph unicode="S" horiz-adv-x="1323" d="M82 119l106 227q135 -65 246.5 -87.5t257.5 -22.5q120 0 186 42t66 121q0 71 -70 111.5t-237 79.5q-71 16 -124 30.5t-112 35.5t-100.5 44t-82 56t-64.5 71t-39 88.5t-15 110.5q0 193 144.5 313.5t388.5 120.5q283 0 553 -117l-119 -233q-99 41 -220.5 68.5t-219.5 27.5 q-108 0 -169 -43t-61 -112q0 -73 73.5 -114.5t246.5 -80.5q100 -23 174.5 -46.5t143.5 -59.5t112 -80t68.5 -106.5t25.5 -139.5q0 -207 -152 -324.5t-407 -117.5q-191 0 -312 26.5t-288 110.5z" />
<glyph unicode="T" horiz-adv-x="1351" d="M72 1190v254h1214v-254h-461v-1190h-295v1190h-458z" />
<glyph unicode="U" horiz-adv-x="1550" d="M137 580v864h287v-789q0 -401 350 -401q354 0 354 401v789h287v-864q0 -126 -41.5 -233.5t-120.5 -188.5t-202 -127.5t-277 -46.5q-153 0 -275.5 46t-200.5 127t-119.5 189t-41.5 234z" />
<glyph unicode="V" horiz-adv-x="1556" d="M41 1444h317l422 -942l422 942h320l-674 -1444h-135z" />
<glyph unicode="W" horiz-adv-x="2287" d="M41 1444h317l326 -877l395 877h121l393 -877l326 877h317l-567 -1444h-121l-409 948l-408 -948h-121z" />
<glyph unicode="X" horiz-adv-x="1476" d="M45 0l508 729l-494 715h328l354 -492l357 492h325l-491 -715l506 -729h-334l-363 504l-362 -504h-334z" />
<glyph unicode="Y" horiz-adv-x="1431" d="M14 1444h334l369 -637l364 637h336l-555 -955v-489h-295v489z" />
<glyph unicode="Z" horiz-adv-x="1396" d="M88 0v127l799 1063h-762v254h1182v-133l-797 -1057h801v-254h-1223z" />
<glyph unicode="[" horiz-adv-x="823" d="M156 -260v1696h592v-213h-357v-1268h357v-215h-592z" />
<glyph unicode="\" horiz-adv-x="1015" d="M-49 1634h237l908 -1896h-238z" />
<glyph unicode="]" horiz-adv-x="833" d="M86 -45h354v1268h-354v213h592v-1696h-592v215z" />
<glyph unicode="^" horiz-adv-x="978" d="M80 1004l344 440h129l346 -440h-205l-205 266l-206 -266h-203z" />
<glyph unicode="_" horiz-adv-x="1214" d="M-6 -61h1225v-170h-1225v170z" />
<glyph unicode="`" horiz-adv-x="983" d="M227 1872l310 26l245 -362h-176z" />
<glyph unicode="a" horiz-adv-x="1372" d="M82 559q0 89 23.5 173.5t71 157.5t113 127.5t154.5 86t191 31.5q167 0 326 -93v70h284v-1112h-284v82q-148 -98 -326 -98q-102 0 -191 31.5t-154.5 86t-113 127.5t-71 157t-23.5 173zM356 559q0 -131 92 -225t238 -94q163 0 275 94v446q-115 97 -275 97 q-147 0 -238.5 -94t-91.5 -224z" />
<glyph unicode="b" horiz-adv-x="1378" d="M129 0v1544h285v-495q155 84 323 84q155 0 283 -70.5t204 -203t76 -302.5q0 -167 -76 -299.5t-204 -204t-283 -71.5q-176 0 -323 88v-70h-285zM414 336q114 -96 272 -96q146 0 240 88.5t94 228.5q0 137 -95 228.5t-239 91.5q-155 0 -272 -95v-446z" />
<glyph unicode="c" horiz-adv-x="1179" d="M74 557q0 157 81.5 289.5t221.5 209.5t305 77q131 0 244 -59.5t190 -162.5l-184 -170q-42 62 -108.5 99t-141.5 37q-135 0 -231.5 -94t-96.5 -226q0 -130 96.5 -223.5t231.5 -93.5q76 0 142 36.5t108 100.5l180 -170q-76 -104 -189 -163.5t-241 -59.5q-165 0 -305 76.5 t-221.5 208.5t-81.5 288z" />
<glyph unicode="d" horiz-adv-x="1378" d="M78 557q0 170 76.5 302.5t204 203t282.5 70.5q172 0 324 -84v495h286v-1544h-286v68q-146 -86 -324 -86q-154 0 -282 71.5t-204.5 204t-76.5 299.5zM360 557q0 -140 94 -228.5t238 -88.5q162 0 273 96v446q-113 95 -273 95q-142 0 -237 -91.5t-95 -228.5z" />
<glyph unicode="e" horiz-adv-x="1259" d="M76 557q0 159 71.5 290t202.5 208.5t295 77.5q168 0 291.5 -76.5t186.5 -210t63 -307.5q0 -12 -1 -34t-1 -30h-824q24 -111 108.5 -179.5t209.5 -68.5q87 0 164 37.5t123 100.5l182 -152q-78 -106 -210 -167.5t-292 -61.5q-164 0 -295 77t-202.5 207.5t-71.5 288.5z M362 657h551q-4 50 -20 92.5t-46 78.5t-81.5 56.5t-120.5 20.5q-109 0 -185.5 -70.5t-97.5 -177.5z" />
<glyph unicode="f" horiz-adv-x="804" d="M-16 -143q56 0 90.5 5.5t61.5 19.5t40 42.5t19 70.5t6 109v773h-156v235h156v72q0 101 27 175.5t76 117t109 62.5t134 20q34 0 67 -2.5t57 -6.5t47.5 -9t36 -9t25.5 -8l13 -4v-213q-83 10 -117 10q-61 0 -100 -12.5t-58.5 -39t-26 -57.5t-6.5 -80v-16h299v-235h-299v-914 q0 -165 -93.5 -257.5t-256.5 -92.5q-77 0 -151 16v228z" />
<glyph unicode="g" horiz-adv-x="1378" d="M78 584q0 162 76 288.5t203.5 193.5t283.5 67q178 0 324 -84v63h284v-899q0 -89 -19.5 -172.5t-64 -162t-110 -137t-165.5 -93.5t-222 -35q-51 0 -94 1.5t-74 3t-66 6.5t-53 7.5t-52.5 11t-47 12t-55 15.5t-58.5 17l55 211q10 -3 43.5 -12t45.5 -12.5t42 -11t46 -10.5 t44 -8t50 -7t50 -3.5t56 -1.5q135 0 240.5 76t111.5 201q-143 -78 -311 -78q-155 0 -283 68.5t-204 196t-76 288.5zM358 582q0 -131 94 -213t238 -82q168 0 275 90v409q-112 91 -275 91q-142 0 -237 -84.5t-95 -210.5z" />
<glyph unicode="h" horiz-adv-x="1300" d="M129 0v1544h285v-489q125 78 297 78q246 0 360.5 -122t114.5 -390v-621h-285v621q0 256 -242 256q-145 0 -245 -84v-793h-285z" />
<glyph unicode="i" horiz-adv-x="557" d="M113 1399q0 69 48 118.5t115 49.5t114.5 -49.5t47.5 -118.5t-47.5 -117.5t-114.5 -48.5q-68 0 -115.5 48.5t-47.5 117.5zM135 0v1112h285v-1112h-285z" />
<glyph unicode="j" horiz-adv-x="559" d="M-84 -141q6 0 18.5 -1t18.5 -1q108 0 144 52.5t36 196.5v1006h287v-1149q0 -166 -95.5 -258t-240.5 -92q-86 0 -168 16v230zM113 1399q0 69 48 118.5t115 49.5q66 0 114 -49.5t48 -118.5t-48 -117.5t-114 -48.5q-68 0 -115.5 48.5t-47.5 117.5z" />
<glyph unicode="k" horiz-adv-x="1241" d="M129 0v1544h285v-909l475 477h334l-406 -434l412 -678h-316l-284 455l-215 -207v-248h-285z" />
<glyph unicode="l" horiz-adv-x="555" d="M133 0v1544h287v-1544h-287z" />
<glyph unicode="m" horiz-adv-x="2009" d="M129 0v1112h287v-70q128 91 289 91q258 0 368 -142q152 142 348 142q247 0 362 -122t115 -390v-621h-284v621q0 128 -62 192t-180 64q-126 0 -221 -89q12 -37 12 -172v-616h-284v621q0 256 -224 256q-144 0 -239 -89v-788h-287z" />
<glyph unicode="n" horiz-adv-x="1302" d="M129 0v1112h285v-70q131 91 297 91q246 0 360.5 -122t114.5 -390v-621h-285v621q0 256 -242 256q-143 0 -245 -89v-788h-285z" />
<glyph unicode="o" horiz-adv-x="1363" d="M72 557q0 157 81.5 289.5t221.5 209.5t305 77t305 -77t221.5 -209.5t81.5 -289.5q0 -156 -81.5 -288t-221.5 -208.5t-305 -76.5t-305 76.5t-221.5 208.5t-81.5 288zM352 557q0 -130 96.5 -223.5t231.5 -93.5q136 0 232 93t96 224q0 132 -96 226t-232 94 q-135 0 -231.5 -94t-96.5 -226z" />
<glyph unicode="p" horiz-adv-x="1380" d="M129 -358v1470h285v-65q149 86 323 86q155 0 282.5 -70.5t204 -203t76.5 -302.5q0 -167 -76.5 -299t-204.5 -203t-282 -71q-177 0 -323 84v-426h-285zM414 334q108 -94 272 -94q144 0 239 88.5t95 228.5q0 137 -96 228.5t-238 91.5q-157 0 -272 -97v-446z" />
<glyph unicode="q" horiz-adv-x="1380" d="M80 557q0 170 76 302.5t203 203t282 70.5q177 0 326 -86v65h284v-1470h-284v426q-149 -84 -326 -84q-154 0 -281.5 71t-203.5 203t-76 299zM360 557q0 -140 94 -228.5t238 -88.5q163 0 275 94v446q-118 97 -275 97q-142 0 -237 -91.5t-95 -228.5z" />
<glyph unicode="r" horiz-adv-x="892" d="M129 0v1112h287v-156q127 174 350 177q33 0 70 -13v-309q-79 16 -138 16q-74 0 -130 -24.5t-88.5 -66.5t-48 -92t-15.5 -107v-537h-287z" />
<glyph unicode="s" horiz-adv-x="1067" d="M68 90l106 211q109 -47 195.5 -68.5t185.5 -21.5q93 0 137.5 29.5t44.5 76.5q0 46 -51.5 73t-183.5 56q-98 22 -167 47t-128.5 65t-89 98.5t-29.5 136.5q0 152 116 246t308 94q209 0 434 -91l-94 -208q-189 71 -346 71q-80 0 -122 -26.5t-42 -71.5t54 -71.5t192 -55.5 q205 -42 306 -121t101 -225q0 -161 -117.5 -255.5t-328.5 -94.5q-146 0 -252.5 23t-228.5 83z" />
<glyph unicode="t" horiz-adv-x="854" d="M43 877v235h158v432h286v-432h312v-235h-312v-394q0 -151 35.5 -203.5t141.5 -52.5q24 0 131 11v-213q-123 -41 -258 -41q-147 0 -241.5 91t-94.5 259v543h-158z" />
<glyph unicode="u" horiz-adv-x="1308" d="M117 496v616h284v-616q0 -256 242 -256q146 0 252 88v784h285v-1112h-285v74q-133 -90 -303 -90q-246 0 -360.5 122t-114.5 390z" />
<glyph unicode="v" horiz-adv-x="1267" d="M33 1112h299l303 -631l301 631h299l-533 -1112h-135z" />
<glyph unicode="w" horiz-adv-x="1755" d="M29 1112h284l238 -643l256 643h141l256 -643l240 643h282l-415 -1112h-142l-290 690l-293 -690h-140z" />
<glyph unicode="x" horiz-adv-x="1200" d="M35 0l407 569l-403 543h319l244 -326l244 326h319l-403 -543l407 -569h-309l-258 328l-260 -328h-307z" />
<glyph unicode="y" horiz-adv-x="1269" d="M37 1112h299l293 -756h20l287 756h293l-459 -1171q-28 -73 -77 -130.5t-107 -93.5t-128.5 -59.5t-139 -33t-142.5 -9.5q-69 0 -100 2l35 215h30q273 0 355 168h-25z" />
<glyph unicode="z" horiz-adv-x="1171" d="M61 0v139l629 738h-588v235h1014v-137l-631 -739h619v-236h-1043z" />
<glyph unicode="{" horiz-adv-x="931" d="M68 463v215q59 0 102 3t77 14.5t56 22t37.5 38t23 48t12 67.5t5 81t0.5 103v78q0 62 13 110t34 81.5t56.5 57t72 37t89.5 21.5t100 10t112 2v-184q-152 0 -205 -53.5t-53 -194.5v-156q0 -131 -37 -199.5t-131 -95.5q95 -26 131.5 -91t36.5 -197v-166q0 -140 53 -194 t205 -54v-184q-65 0 -112 2.5t-100 10t-89.5 21.5t-72 37.5t-56.5 57t-34 81.5t-13 109v90q0 91 -1.5 133t-11 94.5t-28 72t-54.5 40.5t-87.5 26t-130.5 5z" />
<glyph unicode="|" horiz-adv-x="659" d="M215 -262v1896h221v-1896h-221z" />
<glyph unicode="}" horiz-adv-x="927" d="M76 -133q152 0 204 53t52 193v168q0 132 37 197t133 91q-96 27 -133 95t-37 200v158q0 140 -52 193t-204 53v184q65 0 111.5 -2t99.5 -10t89.5 -21.5t72.5 -37t57 -57t34 -81.5t13 -110v-78q0 -69 0.5 -103t5 -81t12 -67.5t23 -48t37 -38t55.5 -22t76.5 -14.5t101.5 -3 v-215q-79 0 -130 -5t-87 -26t-54 -40.5t-27.5 -72t-11 -94.5t-1.5 -133v-90q0 -61 -13 -109t-34 -81.5t-56.5 -57t-72.5 -37.5t-90 -21.5t-100 -10t-111 -2.5v184z" />
<glyph unicode="~" horiz-adv-x="1005" d="M86 475q4 148 71 232t171 84q53 0 117.5 -21.5t120 -43t87.5 -21.5q43 0 77.5 34.5t53.5 94.5l131 -17q-6 -144 -72.5 -229.5t-162.5 -85.5q-52 0 -117 21.5t-121.5 43t-87.5 21.5q-95 0 -137 -129z" />
<glyph unicode="&#xa1;" horiz-adv-x="575" d="M125 1292q0 69 47.5 117.5t114.5 48.5t114.5 -48.5t47.5 -117.5t-47.5 -117.5t-114.5 -48.5t-114.5 48.5t-47.5 117.5zM139 0l47 958h199l49 -958h-295z" />
<glyph unicode="&#xa2;" horiz-adv-x="1177" d="M66 750q0 164 84 299t223.5 210t302.5 76l26 127h185l-31 -159q157 -49 268 -179l-180 -153q-62 69 -133 94l-137 -668q6 0 18.5 -1t18.5 -1q63 0 127 39.5t106 97.5l178 -155q-78 -95 -187 -151t-235 -60q-46 0 -69 2l-35 -168h-184l39 205q-170 66 -277.5 214 t-107.5 331zM311 750q0 -98 51 -180.5t136 -127.5l135 664q-138 -17 -230 -118t-92 -238z" />
<glyph unicode="&#xa3;" horiz-adv-x="1308" d="M88 0v137l211 94q-35 279 -37 301h-168v220h154q-4 35 -4 102q0 160 40 279.5t112 189.5t164 103.5t204 33.5q143 0 262 -70.5t186 -189.5l-188 -166q-37 68 -103 110t-149 42q-111 0 -172 -72.5t-61 -208.5q0 -47 4 -153h506v-220h-488q17 -134 39 -286h637v-246h-1149z " />
<glyph unicode="&#xa4;" horiz-adv-x="1992" d="M98 -229h8l25 -76l16 76h9l18 -76l25 76h8l-29 -86h-8l-18 71l-17 -71h-8zM174 45v180h62q38 0 64 -26.5t26 -63.5t-24.5 -63.5t-59.5 -26.5h-68zM221 -229h8l25 -76l16 76h9l18 -76l25 76h8l-29 -86h-8l-19 71l-16 -71h-8zM223 88h15q17 0 27.5 13t10.5 34 q0 19 -11.5 32t-28.5 13h-13v-92zM340 45v180h129v-41h-80v-24h53v-35h-53v-41h86v-39h-135zM348 -229h8l25 -76l16 76h9l18 -76l25 76h8l-29 -86h-8l-19 71l-16 -71h-8zM406 922q0 116 64.5 210t168.5 136q42 104 136.5 168.5t211.5 64.5q116 0 210 -64.5t136 -168.5 q104 -42 169 -136t65 -210q0 -117 -65 -212t-169 -137q-42 -104 -136 -168.5t-210 -64.5q-117 0 -211.5 64.5t-136.5 168.5q-104 42 -168.5 137t-64.5 212zM461 -311q0 8 8 8t8 -8t-8 -8t-8 8zM487 59l19 37q32 -14 61 -14q21 0 21 12q0 11 -29 19q-34 7 -50.5 18.5 t-16.5 38.5q0 25 17.5 41t49.5 16t74 -14l-21 -39q-32 12 -53 12q-18 0 -18 -12q0 -11 30 -18q68 -13 68 -56q0 -28 -20 -43.5t-54 -15.5q-41 0 -78 18zM500 -231h8v-86h-8v86zM530 -231h9l51 -72v72h8v-86h-8l-51 73v-73h-9v86zM616 -231h62v-9h-27v-77h-8v77h-27v9z M655 45v180h50v-180h-50zM698 -231h54v-9h-45v-36h41v-9h-41v-24h45v-8h-54v86zM713 602h88v141l141 -141v275h-229v-275zM713 965h229v274l-141 -141v141h-88v-274zM719 135q0 38 28 65t68 27q45 0 74 -26l-33 -33q-18 14 -41 14q-19 0 -32 -13.5t-13 -33.5q0 -22 13 -36.5 t32 -14.5q13 0 29 8v8h-33v35h84v-67q-29 -24 -80 -27q-40 0 -68 28t-28 66zM770 -231h8v-78h41v-8h-49v86zM838 -231h8v-78h41v-8h-49v86zM905 -231h8v-86h-8v86zM913 45v180h23l96 -94v94h49v-180h-22l-96 92v-92h-50zM932 -274q0 19 13 32t30 13q18 0 33 -15l-7 -6 q-9 12 -26 12q-14 0 -24.5 -10.5t-10.5 -25.5q0 -14 11 -24.5t26 -10.5q6 0 12 2t9 4l3 2v10h-20v8h29v-22q-13 -12 -33 -12t-32.5 12t-12.5 31zM1028 -231h53v-9h-45v-36h41v-9h-41v-24h45v-8h-53v86zM1030 602h72q65 0 111.5 47t46.5 113q0 68 -50 115h-180v-275z M1030 965h180q50 47 50 114q0 66 -46.5 113t-111.5 47h-72v-274zM1100 -231h8l51 -72v72h8v-86h-8l-51 73v-73h-8v86zM1104 45v180h131v-41h-82v-24h55v-35h-55v-41h86v-39h-135zM1184 -231h61v-9h-26v-77h-9v77h-26v9zM1262 45v180h61q38 0 64 -26.5t26 -63.5t-24.5 -63.5 t-59.5 -26.5h-67zM1264 -231h24q18 0 30.5 -12.5t12.5 -30.5t-13.5 -30.5t-29.5 -12.5h-24v86zM1272 -240v-69h16q14 0 24.5 10.5t10.5 24.5q0 15 -10.5 24.5t-24.5 9.5h-16zM1311 88h14q17 0 28 13.5t11 33.5q0 19 -12 32t-29 13h-12v-92zM1350 -231h53v-9h-45v-36h41v-9 h-41v-24h45v-8h-53v86zM1417 -299l6 4q7 -14 25 -14q16 0 16 16q0 12 -16 17q-25 10 -25 24q0 9 7 16t16 7q14 0 22 -15l-6 -4q-7 10 -16 10q-5 0 -9.5 -4t-4.5 -10q0 -10 18 -16q23 -9 23 -25q0 -10 -7 -17t-18 -7q-24 0 -31 18zM1475 45v180h79q27 0 40.5 -11t13.5 -28 q0 -18 -17 -32q35 -14 35 -54q0 -23 -14.5 -39t-40.5 -16h-96zM1493 -231h8v-86h-8v86zM1520 -274q0 19 13 32t30 13t32 -15l-6 -6q-9 12 -26 12q-14 0 -24.5 -10.5t-10.5 -25.5q0 -14 11 -24.5t26 -10.5q6 0 12 2t9 4l3 2v10h-20v8h28v-22q-12 -12 -32 -12t-32.5 12 t-12.5 31zM1522 84h22q31 0 31 22q0 21 -37 21h-16v-43zM1522 162h28q15 0 15 10q0 12 -13 12h-30v-22zM1614 223h55l37 -65l37 65h57l-69 -119v-59h-50v59zM1618 -231h8l51 -72v72h9v-86h-9l-51 73v-73h-8v86zM1700 -311q0 8 8 8t8 -8t-8 -8t-8 8zM1724 -274q0 19 13 32 t30 13q18 0 33 -15l-6 -6q-9 12 -27 12q-14 0 -24 -10.5t-10 -25.5q0 -14 10.5 -24.5t25.5 -10.5q6 0 12.5 2t9.5 4l3 2v10h-20v8h28v-22q-13 -12 -33 -12t-32.5 12t-12.5 31zM1821 -231h22q13 0 23 -10.5t10 -22.5q0 -22 -18 -31l20 -22h-12l-17 18h-20v-18h-8v86z M1829 -240v-51h14q10 1 17.5 9.5t7.5 17.5q0 10 -8 17t-17 7h-14z" />
<glyph unicode="&#xa5;" horiz-adv-x="1474" d="M33 1444h334l364 -637l369 637h334l-439 -750h285v-192h-391l-8 -19v-75h399v-193h-399v-215h-295v215h-400v193h400v75l-8 19h-392v192h283z" />
<glyph unicode="&#xa6;" horiz-adv-x="653" d="M217 -260v784h219v-784h-219zM217 850v784h219v-784h-219z" />
<glyph unicode="&#xa7;" horiz-adv-x="1282" d="M106 723q0 130 177 217q-52 33 -80.5 88t-28.5 125q0 145 116.5 225t303.5 80q127 0 262.5 -27t233.5 -65l-95 -211q-228 84 -407 84q-72 0 -115 -29.5t-43 -79.5q0 -23 20.5 -43.5t49.5 -34t71 -25.5t73.5 -18.5t68 -13t45.5 -8.5q49 -11 74 -17t67 -17t64 -20t54 -23.5 t49 -28.5t37.5 -35t30 -44t16.5 -53t7 -65q0 -65 -49.5 -122.5t-101.5 -72.5q63 -60 63 -161q0 -155 -118 -250.5t-320 -95.5q-148 0 -253.5 21t-227.5 83l106 197q98 -48 175 -68t177 -20q95 0 151 30.5t56 69.5q0 35 -39 60t-101.5 41.5t-138 32.5t-151.5 38.5 t-138.5 52.5t-101.5 82t-39 121zM330 748q0 -29 25.5 -51t78.5 -38t106 -27.5t135 -28.5t140 -32q45 7 83 34.5t38 66.5q0 38 -60.5 68t-197.5 61q-164 39 -227 59q-52 -15 -86.5 -47t-34.5 -65z" />
<glyph unicode="&#xa8;" horiz-adv-x="1024" d="M176 1671q0 57 40 97t97 40q56 0 96 -40t40 -97t-40 -98t-96 -41q-57 0 -97 41t-40 98zM578 1671q0 57 39.5 97t95.5 40q57 0 96 -40t39 -97t-39 -98t-96 -41q-55 0 -95 41t-40 98z" />
<glyph unicode="&#xa9;" horiz-adv-x="1699" d="M113 725q0 148 57.5 284.5t155.5 237t235.5 160t290.5 59.5q152 0 289 -59.5t234.5 -159.5t154.5 -236.5t57 -285.5q0 -148 -57.5 -284.5t-155.5 -237t-235.5 -160t-290.5 -59.5q-152 0 -289 59.5t-234.5 159.5t-154.5 236.5t-57 285.5zM199 723q0 -133 50 -254t136 -209 t207 -140t256 -52q136 0 258 52.5t208 141.5t136.5 210t50.5 253q0 178 -84.5 328t-234 238.5t-330.5 88.5q-136 0 -257.5 -52.5t-208 -141.5t-137 -210t-50.5 -253zM436 725q0 178 123 303t297 125q97 0 182.5 -42.5t143.5 -117.5l-129 -112q-34 50 -85.5 78t-111.5 28 q-101 0 -173.5 -76.5t-72.5 -185.5q0 -110 72 -187t174 -77q59 0 110.5 28.5t86.5 77.5l129 -112q-58 -75 -143.5 -117.5t-182.5 -42.5q-174 0 -297 126t-123 304z" />
<glyph unicode="&#xaa;" horiz-adv-x="1024" d="M92 1038q0 105 45 195.5t135 148.5t207 58q110 0 217 -60v43h205v-772h-205v47q-99 -63 -217 -63q-117 0 -207 58t-135 149t-45 196zM289 1038q0 -90 63 -154.5t164 -64.5q105 0 180 62v313q-74 61 -180 61q-101 0 -164 -64t-63 -153z" />
<glyph unicode="&#xab;" horiz-adv-x="1216" d="M78 545l358 530l185 -139l-289 -391l289 -389l-185 -142zM584 545l358 530l184 -139l-288 -391l288 -389l-184 -142z" />
<glyph unicode="&#xac;" horiz-adv-x="1216" d="M76 780v246h1036v-600h-238v354h-798z" />
<glyph unicode="&#xad;" horiz-adv-x="835" d="M88 559v244h660v-244h-660z" />
<glyph unicode="&#xae;" horiz-adv-x="1699" d="M115 725q0 148 57.5 284.5t155.5 237t235.5 160t290.5 59.5q152 0 289 -59.5t234.5 -159.5t154.5 -236.5t57 -285.5q0 -148 -57.5 -284.5t-155.5 -237t-235.5 -160t-290.5 -59.5q-152 0 -289 59.5t-234.5 159.5t-154.5 236.5t-57 285.5zM201 723q0 -178 84.5 -328 t234 -238.5t330.5 -88.5q136 0 257.5 52.5t207.5 141.5t136 209.5t50 253.5q0 178 -84 328t-233 238.5t-330 88.5q-136 0 -258 -52.5t-208 -141.5t-136.5 -210t-50.5 -253zM518 315v834h367q88 0 153.5 -24.5t102 -68t54 -95.5t17.5 -113q0 -187 -135 -262l158 -174 l-121 -125l-223 243q-12 -2 -39 -2h-158v-213h-176zM694 659h142q96 0 145 46t49 124q0 74 -41.5 123t-128.5 49h-166v-342z" />
<glyph unicode="&#xaf;" horiz-adv-x="1024" d="M188 1569v184h648v-184h-648z" />
<glyph unicode="&#xb0;" horiz-adv-x="966" d="M111 1110q0 148 111.5 256.5t260.5 108.5t261 -109t112 -260q0 -148 -110.5 -254.5t-262.5 -106.5q-153 0 -262.5 107.5t-109.5 257.5zM264 1108q0 -89 64 -151t155 -62t154 62t63 151q0 90 -64 152.5t-153 62.5q-90 0 -154.5 -63t-64.5 -152z" />
<glyph unicode="&#xb1;" horiz-adv-x="1310" d="M139 0v244h1037v-244h-1037zM139 778v244h400v397h237v-397h400v-244h-400v-397h-237v397h-400z" />
<glyph unicode="&#xb2;" horiz-adv-x="849" d="M90 612v76q41 58 107.5 109.5t129 88t120.5 73.5t93 81.5t35 96.5q0 69 -49 117.5t-118 48.5q-68 0 -115 -50t-47 -116v-9h-156v19q0 135 95 226t227 91t228.5 -92t96.5 -225q0 -51 -15 -96t-36 -75.5t-58 -63t-66 -51.5t-75 -49t-71 -48h327v-152h-653z" />
<glyph unicode="&#xb3;" horiz-adv-x="849" d="M70 662q8 17 30.5 65t32.5 72q108 -47 260 -47q66 0 112 31t46 87q0 45 -45.5 83t-140.5 38h-66l-31 72l185 229h-342v150h594v-78l-211 -264q105 -23 166 -80t61 -152q0 -125 -91 -196.5t-243 -71.5q-100 0 -168.5 13t-148.5 49z" />
<glyph unicode="&#xb4;" horiz-adv-x="1024" d="M287 1536l245 362l310 -26l-379 -336h-176z" />
<glyph unicode="&#xb5;" horiz-adv-x="1323" d="M129 -354v1466h285v-616q0 -256 241 -256q146 0 252 88v784h285v-1112h-285v68q-117 -84 -274 -84q-139 0 -219 92v-430h-285z" />
<glyph unicode="&#xb6;" horiz-adv-x="1191" d="M51 956q0 227 150.5 352.5t406.5 125.5h449v-1434h-400v483h-43q-252 0 -407.5 124.5t-155.5 348.5zM399 983q0 -85 58.5 -130.5t154.5 -45.5h45v352h-32q-106 0 -166 -43t-60 -133z" />
<glyph unicode="&#xb7;" horiz-adv-x="503" d="M88 641q0 69 47.5 117.5t114.5 48.5q68 0 116 -48.5t48 -117.5t-48 -117.5t-116 -48.5q-67 0 -114.5 48.5t-47.5 117.5z" />
<glyph unicode="&#xb8;" horiz-adv-x="878" d="M215 -281q46 -4 80 -4q65 0 103 19t38 51q0 28 -39.5 41.5t-101.5 13.5l137 162h170l-51 -113q19 0 43 -29.5t24 -70.5q0 -73 -68.5 -123.5t-213.5 -50.5l-111 6z" />
<glyph unicode="&#xb9;" horiz-adv-x="794" d="M176 1378l289 66h78v-832h-174v660l-158 -35z" />
<glyph unicode="&#xba;" horiz-adv-x="1038" d="M84 1038q0 167 124.5 285.5t301.5 118.5q175 0 299.5 -118.5t124.5 -285.5q0 -166 -124.5 -283.5t-299.5 -117.5q-177 0 -301.5 117.5t-124.5 283.5zM285 1038q0 -90 66 -153.5t159 -63.5q92 0 158.5 64t66.5 153q0 91 -66.5 155t-158.5 64q-94 0 -159.5 -64t-65.5 -155z " />
<glyph unicode="&#xbb;" horiz-adv-x="1214" d="M94 156l287 389l-287 391l182 139l361 -530l-361 -531zM598 156l289 389l-289 391l184 139l359 -530l-359 -531z" />
<glyph unicode="&#xbc;" horiz-adv-x="1828" d="M133 1378l289 66h78v-832h-174v660l-158 -35zM285 0l989 1436h209l-989 -1436h-209zM961 258l495 576h133v-512h131v-148h-131v-174h-168v174h-426zM1206 322h215v249z" />
<glyph unicode="&#xbd;" horiz-adv-x="1916" d="M133 1378l289 66h78v-832h-174v660l-158 -35zM287 0l989 1436h209l-989 -1436h-209zM1116 0v76q41 58 107.5 109.5t129 87.5t120.5 73t93.5 81.5t35.5 96.5q0 69 -49.5 117.5t-118.5 48.5q-68 0 -115 -50t-47 -116v-8h-156v19q0 135 95 226t227 91t228.5 -92t96.5 -225 q0 -51 -15 -96t-36 -75.5t-58 -63t-66 -51.5t-75 -49t-71 -48h327v-152h-653z" />
<glyph unicode="&#xbe;" horiz-adv-x="1853" d="M70 662l63 137q108 -47 260 -47q66 0 112 31t46 87q0 46 -44.5 83.5t-141.5 37.5h-66l-31 72l185 229h-342v150h594v-78l-211 -264q105 -23 166 -80t61 -152q0 -125 -91 -196.5t-243 -71.5q-100 0 -168.5 13t-148.5 49zM324 0l989 1436h209l-990 -1436h-208zM997 258 l496 576h133v-512h131v-148h-131v-174h-168v174h-426zM1243 322h215v249z" />
<glyph unicode="&#xbf;" horiz-adv-x="1105" d="M63 436q0 83 29.5 155.5t85.5 127.5t145 87t201 32l11 166h202l17 -279l-27 -68h-98q-136 0 -221.5 -55.5t-85.5 -155.5q0 -98 75 -155.5t185 -57.5q221 0 399 80l96 -227q-121 -62 -225 -83t-262 -21q-237 0 -382 121.5t-145 332.5zM475 1292q0 70 47 119t115 49 t115 -49t47 -119q0 -69 -47.5 -117.5t-114.5 -48.5t-114.5 48.5t-47.5 117.5z" />
<glyph unicode="&#xc0;" horiz-adv-x="1572" d="M25 0l688 1444h145l690 -1444h-309l-131 293h-645l-129 -293h-309zM317 1872l310 26l245 -362h-176zM567 537h437l-220 477z" />
<glyph unicode="&#xc1;" horiz-adv-x="1572" d="M25 0l688 1444h145l690 -1444h-309l-131 293h-645l-129 -293h-309zM567 537h437l-220 477zM702 1536l246 362l309 -26l-378 -336h-177z" />
<glyph unicode="&#xc2;" horiz-adv-x="1572" d="M25 0l688 1444h145l690 -1444h-309l-131 293h-645l-129 -293h-309zM399 1536l299 319h174l302 -319h-197l-193 180l-190 -180h-195zM567 537h437l-220 477z" />
<glyph unicode="&#xc3;" horiz-adv-x="1572" d="M25 0l688 1444h145l690 -1444h-309l-131 293h-645l-129 -293h-309zM373 1530q4 148 71 232.5t170 84.5q68 0 179 -43t147 -43q43 0 77.5 34.5t53.5 94.5l131 -18q-6 -143 -73 -229.5t-162 -86.5q-67 0 -180.5 43t-145.5 43q-96 0 -137 -126zM567 537h437l-220 477z" />
<glyph unicode="&#xc4;" horiz-adv-x="1572" d="M25 0l688 1444h145l690 -1444h-309l-131 293h-645l-129 -293h-309zM449 1671q0 57 40 97t97 40q56 0 95.5 -40t39.5 -97t-40 -98t-95 -41q-57 0 -97 41t-40 98zM567 537h437l-220 477zM850 1671q0 57 39.5 97t95.5 40q57 0 96 -40t39 -97t-39 -98t-96 -41q-55 0 -95 41 t-40 98z" />
<glyph unicode="&#xc5;" horiz-adv-x="1572" d="M25 0l655 1376q-55 30 -89 84.5t-34 116.5q0 91 68 159t159 68q92 0 160 -67t68 -160q0 -63 -34 -117t-89 -84l659 -1376h-309l-131 293h-645l-129 -293h-309zM567 537h437l-220 477zM668 1577q0 -48 33.5 -82.5t82.5 -34.5t83 34.5t34 84.5q0 49 -34.5 83t-82.5 34 q-49 0 -82.5 -34.5t-33.5 -84.5z" />
<glyph unicode="&#xc6;" horiz-adv-x="2121" d="M6 0l729 1444h1258v-254h-779v-367h652v-245h-652v-324h822v-254h-1108v293h-469l-144 -293h-309zM565 537h363v630h-54z" />
<glyph unicode="&#xc7;" horiz-adv-x="1519" d="M92 721q0 150 60.5 287t162.5 236t243 157.5t296 58.5q178 0 333 -73.5t263 -202.5l-227 -193q-62 89 -159 140t-210 51q-193 0 -326 -129t-133 -332q0 -201 133.5 -331t325.5 -130q113 0 210 51t159 140l227 -193q-92 -109 -218.5 -178.5t-273.5 -87.5l-45 -103 q19 0 43.5 -29.5t24.5 -70.5q0 -73 -69 -123.5t-214 -50.5l-110 6l-10 98q46 -4 79 -4q65 0 103.5 19t38.5 51q0 28 -40 41.5t-102 13.5l123 148q-190 17 -347.5 118t-249 263.5t-91.5 351.5z" />
<glyph unicode="&#xc8;" horiz-adv-x="1343" d="M150 0v1444h1064v-254h-780v-367h653v-245h-653v-324h823v-254h-1107zM223 1872l309 26l246 -362h-176z" />
<glyph unicode="&#xc9;" horiz-adv-x="1343" d="M150 0v1444h1064v-254h-780v-367h653v-245h-653v-324h823v-254h-1107zM600 1536l246 362l309 -26l-379 -336h-176z" />
<glyph unicode="&#xca;" horiz-adv-x="1343" d="M150 0v1444h1064v-254h-780v-367h653v-245h-653v-324h823v-254h-1107zM299 1536l299 319h174l301 -319h-196l-193 180l-190 -180h-195z" />
<glyph unicode="&#xcb;" horiz-adv-x="1343" d="M150 0v1444h1064v-254h-780v-367h653v-245h-653v-324h823v-254h-1107zM348 1671q0 57 40 97t97 40q56 0 96 -40t40 -97t-40 -98t-96 -41q-57 0 -97 41t-40 98zM750 1671q0 57 39.5 97t95.5 40q57 0 96 -40t39 -97t-39 -98t-96 -41q-55 0 -95 41t-40 98z" />
<glyph unicode="&#xcc;" horiz-adv-x="604" d="M-158 1898l310 27l245 -362h-176zM156 0v1444h295v-1444h-295z" />
<glyph unicode="&#xcd;" horiz-adv-x="604" d="M156 0v1444h295v-1444h-295zM221 1563l246 362l309 -27l-379 -335h-176z" />
<glyph unicode="&#xce;" horiz-adv-x="604" d="M-80 1563l299 319h174l301 -319h-196l-193 180l-190 -180h-195zM156 0v1444h295v-1444h-295z" />
<glyph unicode="&#xcf;" horiz-adv-x="604" d="M-31 1698q0 57 40 97t97 40q56 0 96 -40t40 -97t-40 -98t-96 -41q-57 0 -97 41t-40 98zM156 0v1444h295v-1444h-295zM371 1698q0 57 39.5 97t95.5 40q57 0 96 -40t39 -97t-39 -98t-96 -41q-55 0 -95 41t-40 98z" />
<glyph unicode="&#xd0;" horiz-adv-x="1654" d="M82 600v242h182v602h572q197 0 364.5 -97t265 -263.5t97.5 -362.5q0 -189 -90 -355t-247.5 -266t-342.5 -100h-619v600h-182zM549 268h309q112 0 208.5 62.5t152 167t55.5 223.5q0 188 -128.5 321.5t-309.5 133.5h-287v-334h309v-242h-309v-332z" />
<glyph unicode="&#xd1;" horiz-adv-x="1597" d="M150 0v1444h143l860 -909v909h295v-1444h-143l-863 909v-909h-292zM377 1530q4 148 71 232.5t170 84.5q68 0 179 -43t147 -43q43 0 77.5 34.5t53.5 94.5l131 -18q-6 -143 -73 -229.5t-162 -86.5q-67 0 -180.5 43t-145.5 43q-96 0 -137 -126z" />
<glyph unicode="&#xd2;" d="M90 721q0 201 103 370.5t279.5 268t385.5 98.5q210 0 386.5 -98.5t279 -268t102.5 -370.5t-102.5 -370.5t-279 -268t-386.5 -98.5q-209 0 -385.5 98.5t-279.5 268t-103 370.5zM389 1872l309 26l246 -362h-176zM391 721q0 -126 62.5 -232.5t170 -168.5t234.5 -62t235 62 t171 168.5t63 232.5q0 125 -63 231.5t-171 169t-235 62.5q-193 0 -330 -136t-137 -327z" />
<glyph unicode="&#xd3;" d="M90 721q0 201 103 370.5t279.5 268t385.5 98.5q210 0 386.5 -98.5t279 -268t102.5 -370.5t-102.5 -370.5t-279 -268t-386.5 -98.5q-209 0 -385.5 98.5t-279.5 268t-103 370.5zM391 721q0 -126 62.5 -232.5t170 -168.5t234.5 -62t235 62t171 168.5t63 232.5 q0 125 -63 231.5t-171 169t-235 62.5q-193 0 -330 -136t-137 -327zM766 1536l246 362l309 -26l-379 -336h-176z" />
<glyph unicode="&#xd4;" d="M90 721q0 201 103 370.5t279.5 268t385.5 98.5q210 0 386.5 -98.5t279 -268t102.5 -370.5t-102.5 -370.5t-279 -268t-386.5 -98.5q-209 0 -385.5 98.5t-279.5 268t-103 370.5zM391 721q0 -126 62.5 -232.5t170 -168.5t234.5 -62t235 62t171 168.5t63 232.5 q0 125 -63 231.5t-171 169t-235 62.5q-193 0 -330 -136t-137 -327zM467 1536l299 319h174l301 -319h-197l-192 180l-190 -180h-195z" />
<glyph unicode="&#xd5;" d="M90 721q0 201 103 370.5t279.5 268t385.5 98.5q210 0 386.5 -98.5t279 -268t102.5 -370.5t-102.5 -370.5t-279 -268t-386.5 -98.5q-209 0 -385.5 98.5t-279.5 268t-103 370.5zM391 721q0 -126 62.5 -232.5t170 -168.5t234.5 -62t235 62t171 168.5t63 232.5 q0 125 -63 231.5t-171 169t-235 62.5q-193 0 -330 -136t-137 -327zM442 1530q4 148 71 232.5t171 84.5q68 0 179 -43t147 -43q43 0 77.5 34.5t53.5 94.5l131 -18q-6 -143 -73.5 -229.5t-162.5 -86.5q-67 0 -180 43t-145 43q-97 0 -138 -126z" />
<glyph unicode="&#xd6;" d="M90 721q0 201 103 370.5t279.5 268t385.5 98.5q210 0 386.5 -98.5t279 -268t102.5 -370.5t-102.5 -370.5t-279 -268t-386.5 -98.5q-209 0 -385.5 98.5t-279.5 268t-103 370.5zM391 721q0 -126 62.5 -232.5t170 -168.5t234.5 -62t235 62t171 168.5t63 232.5 q0 125 -63 231.5t-171 169t-235 62.5q-193 0 -330 -136t-137 -327zM520 1671q0 57 40 97t97 40q56 0 96 -40t40 -97t-40 -98t-96 -41q-57 0 -97 41t-40 98zM922 1671q0 57 39.5 97t95.5 40q57 0 96 -40t39 -97t-39 -98t-96 -41q-55 0 -95 41t-40 98z" />
<glyph unicode="&#xd7;" horiz-adv-x="1261" d="M115 291l358 356l-358 357l168 172l358 -357l358 357l166 -172l-358 -357l358 -356l-166 -172l-358 354l-358 -354z" />
<glyph unicode="&#xd8;" d="M90 721q0 201 103 370.5t279.5 268t385.5 98.5q230 0 416 -119l92 105h244l-193 -223q99 -100 154 -229t55 -271q0 -201 -102.5 -370.5t-279 -268t-386.5 -98.5q-224 0 -409 112l-84 -96h-244l182 213q-100 100 -156.5 231.5t-56.5 276.5zM391 721q0 -159 105 -277 l596 676q-112 64 -234 64q-193 0 -330 -136t-137 -327zM633 315q102 -57 225 -57q127 0 235 62t171 168.5t63 232.5q0 148 -102 268z" />
<glyph unicode="&#xd9;" horiz-adv-x="1550" d="M137 580v864h287v-789q0 -401 350 -401q354 0 354 401v789h287v-864q0 -126 -41.5 -233.5t-120.5 -188.5t-202 -127.5t-277 -46.5q-153 0 -275.5 46t-200.5 127t-119.5 189t-41.5 234zM313 1872l310 26l245 -362h-176z" />
<glyph unicode="&#xda;" horiz-adv-x="1550" d="M137 580v864h287v-789q0 -401 350 -401q354 0 354 401v789h287v-864q0 -126 -41.5 -233.5t-120.5 -188.5t-202 -127.5t-277 -46.5q-153 0 -275.5 46t-200.5 127t-119.5 189t-41.5 234zM692 1536l246 362l309 -26l-379 -336h-176z" />
<glyph unicode="&#xdb;" horiz-adv-x="1550" d="M137 580v864h287v-789q0 -401 350 -401q354 0 354 401v789h287v-864q0 -126 -41.5 -233.5t-120.5 -188.5t-202 -127.5t-277 -46.5q-153 0 -275.5 46t-200.5 127t-119.5 189t-41.5 234zM391 1536l299 319h174l301 -319h-196l-193 180l-190 -180h-195z" />
<glyph unicode="&#xdc;" horiz-adv-x="1550" d="M137 580v864h287v-789q0 -401 350 -401q354 0 354 401v789h287v-864q0 -126 -41.5 -233.5t-120.5 -188.5t-202 -127.5t-277 -46.5q-153 0 -275.5 46t-200.5 127t-119.5 189t-41.5 234zM440 1671q0 57 40.5 97t97.5 40q56 0 95.5 -40t39.5 -97t-40 -98t-95 -41 q-57 0 -97.5 41t-40.5 98zM842 1671q0 57 39.5 97t95.5 40q57 0 96 -40t39 -97t-39 -98t-96 -41q-55 0 -95 41t-40 98z" />
<glyph unicode="&#xdd;" horiz-adv-x="1431" d="M14 1444h334l369 -637l364 637h336l-555 -955v-489h-295v489zM635 1536l246 362l309 -26l-379 -336h-176z" />
<glyph unicode="&#xde;" horiz-adv-x="1363" d="M150 0v1442h292v-189h301q269 0 417.5 -139t148.5 -379q0 -133 -44 -235.5t-124.5 -167t-188 -97t-239.5 -32.5h-271v-203h-292zM442 446h265q142 0 224.5 74t82.5 211q0 130 -73 203.5t-220 73.5h-279v-562z" />
<glyph unicode="&#xdf;" horiz-adv-x="1357" d="M129 -354v1382q0 162 70 285t185.5 185.5t258.5 62.5q224 0 363 -117t139 -326q0 -84 -39 -152t-107 -110q132 -46 205.5 -147t73.5 -224t-42 -219.5t-115 -157.5t-169 -92.5t-207 -31.5q-74 0 -131 14v242q57 -11 93 -11q126 0 208 64.5t82 191.5q0 99 -73.5 167.5 t-204.5 68.5h-41v219h18q82 0 131.5 57.5t49.5 135.5q0 87 -65 139.5t-167 52.5q-110 0 -170.5 -70.5t-60.5 -171.5v-1437h-285z" />
<glyph unicode="&#xe0;" horiz-adv-x="1372" d="M82 559q0 89 23.5 173.5t71 157.5t113 127.5t154.5 86t191 31.5q167 0 326 -93v70h284v-1112h-284v82q-148 -98 -326 -98q-102 0 -191 31.5t-154.5 86t-113 127.5t-71 157t-23.5 173zM225 1583l310 27l245 -363h-176zM356 559q0 -131 92 -225t238 -94q163 0 275 94v446 q-115 97 -275 97q-147 0 -238.5 -94t-91.5 -224z" />
<glyph unicode="&#xe1;" horiz-adv-x="1372" d="M82 559q0 89 23.5 173.5t71 157.5t113 127.5t154.5 86t191 31.5q167 0 326 -93v70h284v-1112h-284v82q-148 -98 -326 -98q-102 0 -191 31.5t-154.5 86t-113 127.5t-71 157t-23.5 173zM356 559q0 -131 92 -225t238 -94q163 0 275 94v446q-115 97 -275 97 q-147 0 -238.5 -94t-91.5 -224zM602 1247l246 363l309 -27l-379 -336h-176z" />
<glyph unicode="&#xe2;" horiz-adv-x="1372" d="M82 559q0 89 23.5 173.5t71 157.5t113 127.5t154.5 86t191 31.5q167 0 326 -93v70h284v-1112h-284v82q-148 -98 -326 -98q-102 0 -191 31.5t-154.5 86t-113 127.5t-71 157t-23.5 173zM307 1247l299 320h174l301 -320h-196l-193 180l-190 -180h-195zM356 559 q0 -131 92 -225t238 -94q163 0 275 94v446q-115 97 -275 97q-147 0 -238.5 -94t-91.5 -224z" />
<glyph unicode="&#xe3;" horiz-adv-x="1372" d="M82 559q0 89 23.5 173.5t71 157.5t113 127.5t154.5 86t191 31.5q167 0 326 -93v70h284v-1112h-284v82q-148 -98 -326 -98q-102 0 -191 31.5t-154.5 86t-113 127.5t-71 157t-23.5 173zM281 1241q4 148 71 233t170 85q68 0 179 -43t147 -43q43 0 77.5 34.5t53.5 94.5 l131 -19q-6 -143 -73.5 -229t-162.5 -86q-67 0 -180 43t-145 43q-95 0 -137 -127zM356 559q0 -131 92 -225t238 -94q163 0 275 94v446q-115 97 -275 97q-147 0 -238.5 -94t-91.5 -224z" />
<glyph unicode="&#xe4;" horiz-adv-x="1372" d="M82 559q0 89 23.5 173.5t71 157.5t113 127.5t154.5 86t191 31.5q167 0 326 -93v70h284v-1112h-284v82q-148 -98 -326 -98q-102 0 -191 31.5t-154.5 86t-113 127.5t-71 157t-23.5 173zM356 559q0 -131 92 -225t238 -94q163 0 275 94v446q-115 97 -275 97 q-147 0 -238.5 -94t-91.5 -224zM356 1382q0 57 40.5 97.5t97.5 40.5q56 0 95.5 -40.5t39.5 -97.5t-40 -98t-95 -41q-57 0 -97.5 41t-40.5 98zM758 1382q0 57 39.5 97.5t95.5 40.5q57 0 96 -40.5t39 -97.5t-39 -98t-96 -41q-55 0 -95 41t-40 98z" />
<glyph unicode="&#xe5;" horiz-adv-x="1372" d="M82 559q0 89 23.5 173.5t71 157.5t113 127.5t154.5 86t191 31.5q167 0 326 -93v70h284v-1112h-284v82q-148 -98 -326 -98q-102 0 -191 31.5t-154.5 86t-113 127.5t-71 157t-23.5 173zM356 559q0 -131 92 -225t238 -94q163 0 275 94v446q-115 97 -275 97 q-147 0 -238.5 -94t-91.5 -224zM465 1477q0 91 68 159t159 68q92 0 160 -67t68 -160t-68.5 -160.5t-159.5 -67.5t-159 68.5t-68 159.5zM575 1477q0 -48 34 -82.5t83 -34.5t83 34.5t34 84.5q0 49 -34.5 82.5t-82.5 33.5q-49 0 -83 -34t-34 -84z" />
<glyph unicode="&#xe6;" horiz-adv-x="2254" d="M82 557q0 170 76 302.5t204 203t283 70.5q172 0 324 -91v70h286v-123q160 144 385 144q168 0 291.5 -76.5t186.5 -210t63 -307.5q0 -12 -1 -34t-1 -30h-823q24 -111 108 -179.5t209 -68.5q87 0 164 37.5t123 100.5l182 -152q-78 -106 -210 -167.5t-292 -61.5 q-229 0 -385 143v-127h-286v82q-148 -98 -324 -98q-155 0 -283 71t-204 203t-76 299zM356 557q0 -140 97 -230.5t243 -90.5q157 0 273 98v446q-120 101 -273 101q-144 0 -242 -93.5t-98 -230.5zM1358 657h551q-4 50 -20 92.5t-46.5 78.5t-82 56.5t-120.5 20.5 q-109 0 -185 -70.5t-97 -177.5z" />
<glyph unicode="&#xe7;" horiz-adv-x="1179" d="M74 557q0 157 81.5 289.5t221.5 209.5t305 77q131 0 244 -59.5t190 -162.5l-184 -170q-42 62 -108.5 99t-141.5 37q-135 0 -231.5 -94t-96.5 -226q0 -130 96.5 -223.5t231.5 -93.5q76 0 142 36.5t108 100.5l180 -170q-124 -169 -326 -211l-47 -107q19 0 43.5 -29.5 t24.5 -70.5q0 -73 -69 -123.5t-214 -50.5l-110 6l-11 98q46 -4 80 -4q65 0 103.5 19t38.5 51q0 28 -40 41.5t-102 13.5l125 148q-227 25 -380.5 187t-153.5 382z" />
<glyph unicode="&#xe8;" horiz-adv-x="1259" d="M76 557q0 159 71.5 290t202.5 208.5t295 77.5q168 0 291.5 -76.5t186.5 -210t63 -307.5q0 -12 -1 -34t-1 -30h-824q24 -111 108.5 -179.5t209.5 -68.5q87 0 164 37.5t123 100.5l182 -152q-78 -106 -210 -167.5t-292 -61.5q-164 0 -295 77t-202.5 207.5t-71.5 288.5z M180 1583l309 27l246 -363h-176zM362 657h551q-4 50 -20 92.5t-46 78.5t-81.5 56.5t-120.5 20.5q-109 0 -185.5 -70.5t-97.5 -177.5z" />
<glyph unicode="&#xe9;" horiz-adv-x="1259" d="M76 557q0 159 71.5 290t202.5 208.5t295 77.5q168 0 291.5 -76.5t186.5 -210t63 -307.5q0 -12 -1 -34t-1 -30h-824q24 -111 108.5 -179.5t209.5 -68.5q87 0 164 37.5t123 100.5l182 -152q-78 -106 -210 -167.5t-292 -61.5q-164 0 -295 77t-202.5 207.5t-71.5 288.5z M362 657h551q-4 50 -20 92.5t-46 78.5t-81.5 56.5t-120.5 20.5q-109 0 -185.5 -70.5t-97.5 -177.5zM557 1247l246 363l309 -27l-379 -336h-176z" />
<glyph unicode="&#xea;" horiz-adv-x="1259" d="M76 557q0 159 71.5 290t202.5 208.5t295 77.5q168 0 291.5 -76.5t186.5 -210t63 -307.5q0 -12 -1 -34t-1 -30h-824q24 -111 108.5 -179.5t209.5 -68.5q87 0 164 37.5t123 100.5l182 -152q-78 -106 -210 -167.5t-292 -61.5q-164 0 -295 77t-202.5 207.5t-71.5 288.5z M256 1247l299 320h174l301 -320h-196l-193 180l-190 -180h-195zM362 657h551q-4 50 -20 92.5t-46 78.5t-81.5 56.5t-120.5 20.5q-109 0 -185.5 -70.5t-97.5 -177.5z" />
<glyph unicode="&#xeb;" horiz-adv-x="1259" d="M76 557q0 159 71.5 290t202.5 208.5t295 77.5q168 0 291.5 -76.5t186.5 -210t63 -307.5q0 -12 -1 -34t-1 -30h-824q24 -111 108.5 -179.5t209.5 -68.5q87 0 164 37.5t123 100.5l182 -152q-78 -106 -210 -167.5t-292 -61.5q-164 0 -295 77t-202.5 207.5t-71.5 288.5z M305 1382q0 57 40 97.5t97 40.5q56 0 96 -40.5t40 -97.5t-40 -98t-96 -41q-57 0 -97 41t-40 98zM362 657h551q-4 50 -20 92.5t-46 78.5t-81.5 56.5t-120.5 20.5q-109 0 -185.5 -70.5t-97.5 -177.5zM707 1382q0 57 39.5 97.5t95.5 40.5q57 0 96 -40.5t39 -97.5t-39 -98 t-96 -41q-55 0 -95 41t-40 98z" />
<glyph unicode="&#xec;" horiz-adv-x="557" d="M-182 1563l309 26l246 -362h-176zM135 0v1112h285v-1112h-285z" />
<glyph unicode="&#xed;" horiz-adv-x="557" d="M135 0v1112h285v-1112h-285zM197 1227l245 362l310 -26l-379 -336h-176z" />
<glyph unicode="&#xee;" horiz-adv-x="557" d="M-104 1227l299 319h174l301 -319h-197l-192 180l-191 -180h-194zM135 0v1112h285v-1112h-285z" />
<glyph unicode="&#xef;" horiz-adv-x="557" d="M-55 1362q0 57 40 97t97 40q56 0 95.5 -40t39.5 -97t-40 -98t-95 -41q-57 0 -97 41t-40 98zM135 0v1112h285v-1112h-285zM346 1362q0 57 39.5 97t95.5 40q57 0 96 -40t39 -97t-39 -98t-96 -41q-55 0 -95 41t-40 98z" />
<glyph unicode="&#xf0;" horiz-adv-x="1335" d="M49 524q0 92 36.5 178.5t103.5 156t172 111.5t231 42q136 0 223 -37q-35 49 -65.5 85.5t-62 70t-40.5 43.5l-311 -107l-100 143l303 107l-191 227h309q18 -19 39 -42t47 -52t41 -45l250 86l96 -145l-235 -82q85 -101 146 -186.5t114.5 -183t81 -196.5t27.5 -198 q0 -140 -83.5 -259.5t-223 -188t-300.5 -68.5q-165 0 -305 72.5t-221.5 197t-81.5 270.5zM328 524q0 -122 95.5 -203t233.5 -81q137 0 232.5 82t95.5 206q0 83 -47.5 147t-121.5 96t-159 32q-139 0 -234 -79t-95 -200z" />
<glyph unicode="&#xf1;" horiz-adv-x="1302" d="M129 0v1112h285v-70q131 91 297 91q246 0 360.5 -122t114.5 -390v-621h-285v621q0 256 -242 256q-143 0 -245 -89v-788h-285zM236 1221q4 148 71 232.5t170 84.5q68 0 179 -43t147 -43q43 0 77.5 34.5t53.5 94.5l131 -18q-6 -143 -73.5 -229.5t-162.5 -86.5 q-67 0 -180 43t-145 43q-95 0 -137 -127z" />
<glyph unicode="&#xf2;" horiz-adv-x="1363" d="M72 557q0 157 81.5 289.5t221.5 209.5t305 77t305 -77t221.5 -209.5t81.5 -289.5q0 -156 -81.5 -288t-221.5 -208.5t-305 -76.5t-305 76.5t-221.5 208.5t-81.5 288zM215 1563l309 26l246 -362h-176zM352 557q0 -130 96.5 -223.5t231.5 -93.5q136 0 232 93t96 224 q0 132 -96 226t-232 94q-135 0 -231.5 -94t-96.5 -226z" />
<glyph unicode="&#xf3;" horiz-adv-x="1363" d="M72 557q0 157 81.5 289.5t221.5 209.5t305 77t305 -77t221.5 -209.5t81.5 -289.5q0 -156 -81.5 -288t-221.5 -208.5t-305 -76.5t-305 76.5t-221.5 208.5t-81.5 288zM352 557q0 -130 96.5 -223.5t231.5 -93.5q136 0 232 93t96 224q0 132 -96 226t-232 94 q-135 0 -231.5 -94t-96.5 -226zM592 1227l246 362l309 -26l-379 -336h-176z" />
<glyph unicode="&#xf4;" horiz-adv-x="1363" d="M72 557q0 157 81.5 289.5t221.5 209.5t305 77t305 -77t221.5 -209.5t81.5 -289.5q0 -156 -81.5 -288t-221.5 -208.5t-305 -76.5t-305 76.5t-221.5 208.5t-81.5 288zM293 1227l299 319h174l301 -319h-197l-192 180l-191 -180h-194zM352 557q0 -130 96.5 -223.5 t231.5 -93.5q136 0 232 93t96 224q0 132 -96 226t-232 94q-135 0 -231.5 -94t-96.5 -226z" />
<glyph unicode="&#xf5;" horiz-adv-x="1363" d="M72 557q0 157 81.5 289.5t221.5 209.5t305 77t305 -77t221.5 -209.5t81.5 -289.5q0 -156 -81.5 -288t-221.5 -208.5t-305 -76.5t-305 76.5t-221.5 208.5t-81.5 288zM266 1221q4 148 71 232.5t171 84.5q68 0 179 -43t147 -43q43 0 77.5 34.5t53.5 94.5l131 -18 q-6 -143 -73.5 -229.5t-162.5 -86.5q-67 0 -180 43t-145 43q-96 0 -138 -127zM352 557q0 -130 96.5 -223.5t231.5 -93.5q136 0 232 93t96 224q0 132 -96 226t-232 94q-135 0 -231.5 -94t-96.5 -226z" />
<glyph unicode="&#xf6;" horiz-adv-x="1363" d="M72 557q0 157 81.5 289.5t221.5 209.5t305 77t305 -77t221.5 -209.5t81.5 -289.5q0 -156 -81.5 -288t-221.5 -208.5t-305 -76.5t-305 76.5t-221.5 208.5t-81.5 288zM342 1362q0 57 40 97t97 40q56 0 95.5 -40t39.5 -97t-40 -98t-95 -41q-57 0 -97 41t-40 98zM352 557 q0 -130 96.5 -223.5t231.5 -93.5q136 0 232 93t96 224q0 132 -96 226t-232 94q-135 0 -231.5 -94t-96.5 -226zM743 1362q0 57 40 97t96 40q57 0 96 -40t39 -97t-39 -98t-96 -41q-56 0 -96 41t-40 98z" />
<glyph unicode="&#xf7;" horiz-adv-x="1077" d="M88 561v244h905v-244h-905zM381 195q0 62 44 106.5t105 44.5t104.5 -44.5t43.5 -106.5q0 -63 -43.5 -107.5t-104.5 -44.5q-62 0 -105.5 44.5t-43.5 107.5zM381 1157q0 62 44 107t105 45t104.5 -45t43.5 -107q0 -63 -43 -107t-105 -44t-105.5 44t-43.5 107z" />
<glyph unicode="&#xf8;" horiz-adv-x="1366" d="M72 557q0 157 81.5 289.5t221.5 209.5t305 77q177 0 330 -93l69 78h207l-158 -178q160 -163 160 -383q0 -156 -81.5 -288t-221.5 -208.5t-305 -76.5q-176 0 -326 88l-65 -72h-209l151 172q-159 159 -159 385zM352 557q0 -98 66 -170l413 451q-67 39 -151 39 q-135 0 -231.5 -94t-96.5 -226zM530 276q62 -36 150 -36q136 0 232 93t96 224q0 97 -68 168z" />
<glyph unicode="&#xf9;" horiz-adv-x="1308" d="M117 496v616h284v-616q0 -256 242 -256q146 0 252 88v784h285v-1112h-285v74q-133 -90 -303 -90q-246 0 -360.5 122t-114.5 390zM193 1563l309 26l246 -362h-177z" />
<glyph unicode="&#xfa;" horiz-adv-x="1308" d="M117 496v616h284v-616q0 -256 242 -256q146 0 252 88v784h285v-1112h-285v74q-133 -90 -303 -90q-246 0 -360.5 122t-114.5 390zM569 1227l246 362l309 -26l-379 -336h-176z" />
<glyph unicode="&#xfb;" horiz-adv-x="1308" d="M117 496v616h284v-616q0 -256 242 -256q146 0 252 88v784h285v-1112h-285v74q-133 -90 -303 -90q-246 0 -360.5 122t-114.5 390zM262 1227l299 319h174l301 -319h-196l-193 180l-190 -180h-195z" />
<glyph unicode="&#xfc;" horiz-adv-x="1308" d="M117 496v616h284v-616q0 -256 242 -256q146 0 252 88v784h285v-1112h-285v74q-133 -90 -303 -90q-246 0 -360.5 122t-114.5 390zM311 1362q0 57 40.5 97t97.5 40q56 0 95.5 -40t39.5 -97t-40 -98t-95 -41q-57 0 -97.5 41t-40.5 98zM713 1362q0 57 39.5 97t95.5 40 q57 0 96 -40t39 -97t-39 -98t-96 -41q-55 0 -95 41t-40 98z" />
<glyph unicode="&#xfd;" horiz-adv-x="1269" d="M37 1112h299l293 -756h20l287 756h293l-459 -1171q-28 -73 -77 -130.5t-107 -93.5t-128.5 -59.5t-139 -33t-142.5 -9.5q-69 0 -100 2l35 215h30q273 0 355 168h-25zM555 1227l246 362l309 -26l-379 -336h-176z" />
<glyph unicode="&#xfe;" horiz-adv-x="1380" d="M129 -358v1902h285v-497q149 86 323 86q155 0 282.5 -70.5t204 -203t76.5 -302.5q0 -167 -76.5 -299t-204.5 -203t-282 -71q-177 0 -323 84v-426h-285zM414 334q108 -94 272 -94q144 0 239 88.5t95 228.5q0 137 -96 228.5t-238 91.5q-157 0 -272 -97v-446z" />
<glyph unicode="&#xff;" horiz-adv-x="1269" d="M37 1112h299l293 -756h20l287 756h293l-459 -1171q-28 -73 -77 -130.5t-107 -93.5t-128.5 -59.5t-139 -33t-142.5 -9.5q-69 0 -100 2l35 215h30q273 0 355 168h-25zM303 1362q0 57 40 97t97 40q56 0 95.5 -40t39.5 -97t-40 -98t-95 -41q-57 0 -97 41t-40 98zM705 1362 q0 57 39.5 97t95.5 40q57 0 96 -40t39 -97t-39 -98t-96 -41q-55 0 -95 41t-40 98z" />
<glyph unicode="&#x152;" horiz-adv-x="2156" d="M90 721q0 196 98.5 362.5t267.5 263.5t369 97h1203v-254h-781v-367h654v-245h-654v-324h824v-254h-1213q-141 0 -264 37.5t-214.5 105t-157.5 157.5t-99 197.5t-33 223.5zM381 721q0 -99 26 -177t71 -129t108.5 -84.5t134 -48t151.5 -14.5h91v922h-91q-70 0 -137.5 -16 t-132 -52.5t-113.5 -89t-78.5 -133t-29.5 -178.5z" />
<glyph unicode="&#x153;" horiz-adv-x="2185" d="M76 557q0 156 79 288t217.5 210t305.5 78q140 0 257 -57t187 -156q77 100 193.5 156.5t257.5 56.5q168 0 291.5 -76.5t186.5 -210t63 -307.5q0 -12 -1.5 -34t-1.5 -30h-823q24 -111 108.5 -179.5t209.5 -68.5q87 0 163.5 37t122.5 101l183 -152q-78 -106 -210 -167.5 t-292 -61.5q-141 0 -257.5 56.5t-193.5 156.5q-72 -100 -190 -157.5t-260 -57.5q-123 0 -233.5 45.5t-190 122.5t-126 183.5t-46.5 223.5zM354 557q0 -133 95 -227t231 -94q140 0 232 93t92 228q0 133 -94.5 227.5t-231.5 94.5q-139 0 -231.5 -93.5t-92.5 -228.5zM1290 657 h551q-4 50 -20 92.5t-46 78.5t-81.5 56.5t-120.5 20.5q-109 0 -185.5 -70.5t-97.5 -177.5z" />
<glyph unicode="&#x178;" horiz-adv-x="1431" d="M14 1444h334l369 -637l364 637h336l-555 -955v-489h-295v489zM381 1671q0 57 40 97t97 40q56 0 95.5 -40t39.5 -97t-40 -98t-95 -41q-57 0 -97 41t-40 98zM782 1671q0 57 40 97t96 40q57 0 96 -40t39 -97t-39 -98t-96 -41q-56 0 -96 41t-40 98z" />
<glyph unicode="&#x2c6;" horiz-adv-x="1024" d="M123 1536l299 319h174l301 -319h-197l-192 180l-191 -180h-194z" />
<glyph unicode="&#x2dc;" horiz-adv-x="1024" d="M92 1530q4 148 71 232.5t171 84.5q68 0 178.5 -43t146.5 -43q43 0 78 34.5t54 94.5l131 -18q-6 -143 -73.5 -229.5t-162.5 -86.5q-67 0 -180.5 43t-145.5 43q-96 0 -137 -126z" />
<glyph unicode="&#x2000;" horiz-adv-x="962" />
<glyph unicode="&#x2001;" horiz-adv-x="1925" />
<glyph unicode="&#x2002;" horiz-adv-x="962" />
<glyph unicode="&#x2003;" horiz-adv-x="1925" />
<glyph unicode="&#x2004;" horiz-adv-x="641" />
<glyph unicode="&#x2005;" horiz-adv-x="481" />
<glyph unicode="&#x2006;" horiz-adv-x="320" />
<glyph unicode="&#x2007;" horiz-adv-x="320" />
<glyph unicode="&#x2008;" horiz-adv-x="240" />
<glyph unicode="&#x2009;" horiz-adv-x="385" />
<glyph unicode="&#x200a;" horiz-adv-x="106" />
<glyph unicode="&#x2010;" horiz-adv-x="835" d="M88 559v244h660v-244h-660z" />
<glyph unicode="&#x2011;" horiz-adv-x="835" d="M88 559v244h660v-244h-660z" />
<glyph unicode="&#x2012;" horiz-adv-x="835" d="M88 559v244h660v-244h-660z" />
<glyph unicode="&#x2013;" horiz-adv-x="1081" d="M86 559v244h905v-244h-905z" />
<glyph unicode="&#x2014;" horiz-adv-x="1839" d="M88 559v244h1661v-244h-1661z" />
<glyph unicode="&#x2018;" horiz-adv-x="512" d="M94 1096q0 48 8 93t30.5 92.5t57 82.5t93.5 57.5t135 22.5l39 -115q-88 -1 -131.5 -29.5t-51.5 -85.5q55 -11 90 -53t35 -100q0 -66 -43.5 -112t-105.5 -46q-71 0 -113.5 51t-42.5 142z" />
<glyph unicode="&#x2019;" horiz-adv-x="501" d="M55 1020q169 3 181 115q-53 11 -88 53.5t-35 101.5q0 64 43.5 110t105.5 46q72 0 114 -50.5t42 -142.5q0 -48 -8 -93t-30.5 -92.5t-57 -82.5t-93.5 -57.5t-135 -22.5z" />
<glyph unicode="&#x201a;" horiz-adv-x="516" d="M35 -115q170 3 182 115q-55 11 -90 53.5t-35 100.5q0 66 44.5 111.5t107.5 45.5q70 0 111.5 -50.5t41.5 -141.5q0 -48 -7.5 -93t-29.5 -93t-57 -82.5t-94 -57t-135 -22.5z" />
<glyph unicode="&#x201c;" horiz-adv-x="964" d="M88 1092q0 48 8 92.5t30.5 92t57 82t93.5 57t135 22.5l39 -115q-169 -3 -181 -115q54 -9 89.5 -52t35.5 -101q0 -64 -44.5 -110t-106.5 -46q-72 0 -114 50.5t-42 142.5zM549 1092q0 48 7.5 92t29.5 92t57 82.5t94 57t135 22.5l39 -115q-170 -3 -182 -115q54 -9 89.5 -52 t35.5 -101q0 -65 -44.5 -110.5t-107.5 -45.5q-70 0 -111.5 50.5t-41.5 142.5z" />
<glyph unicode="&#x201d;" horiz-adv-x="960" d="M59 1020q171 3 183 115q-55 11 -90 53.5t-35 101.5q0 64 43.5 110t105.5 46q72 0 114 -50.5t42 -142.5q0 -48 -8 -93t-30 -92.5t-56.5 -82.5t-94 -57.5t-135.5 -22.5zM520 1020q88 1 131 29.5t49 85.5q-55 11 -90 53.5t-35 101.5q0 64 45 110t107 46q70 0 112 -50.5 t42 -142.5q0 -48 -8 -93t-30 -92.5t-56.5 -82.5t-93 -57.5t-134.5 -22.5z" />
<glyph unicode="&#x201e;" horiz-adv-x="937" d="M39 -115q88 1 131 29.5t49 85.5q-53 11 -88 53.5t-35 100.5q0 66 44 111.5t106 45.5q71 0 113 -50.5t42 -141.5q0 -48 -8 -93t-30 -92.5t-57 -82.5t-93.5 -57.5t-134.5 -22.5zM498 -115q170 3 182 115q-55 11 -90 53.5t-35 100.5q0 66 44 111.5t106 45.5q71 0 113 -50.5 t42 -141.5q0 -48 -7.5 -93t-29.5 -93t-57 -82.5t-94 -57t-135 -22.5z" />
<glyph unicode="&#x2022;" horiz-adv-x="937" d="M203 721q0 110 78 188t188 78q109 0 186.5 -78t77.5 -188q0 -112 -77.5 -190t-186.5 -78q-111 0 -188.5 78t-77.5 190z" />
<glyph unicode="&#x2026;" horiz-adv-x="1492" d="M78 150q0 69 47 117t115 48q67 0 114 -48t47 -117t-47 -117.5t-114 -48.5t-114.5 48.5t-47.5 117.5zM580 150q0 69 47.5 117t115.5 48t115 -48t47 -117t-47.5 -117.5t-114.5 -48.5q-68 0 -115.5 48.5t-47.5 117.5zM1087 150q0 69 48 117t114 48q68 0 115 -48t47 -117 t-47.5 -117.5t-114.5 -48.5q-66 0 -114 48.5t-48 117.5z" />
<glyph unicode="&#x202f;" horiz-adv-x="385" />
<glyph unicode="&#x2039;" horiz-adv-x="686" d="M63 545l359 530l184 -139l-289 -391l289 -389l-184 -142z" />
<glyph unicode="&#x203a;" horiz-adv-x="671" d="M63 156l289 389l-289 391l185 139l358 -530l-358 -531z" />
<glyph unicode="&#x205f;" horiz-adv-x="481" />
<glyph unicode="&#x20ac;" horiz-adv-x="1441" d="M70 510v139h139q-4 50 -4 72q0 21 4 67h-139v140h157q56 243 233 386.5t410 143.5q160 0 298 -71t229 -199l-199 -176q-67 84 -140.5 127t-187.5 43q-109 0 -198.5 -70.5t-128.5 -183.5h405v-140h-442q-6 -34 -6 -67q0 -35 6 -72h442v-139h-405q40 -114 129 -183t198 -69 q79 0 141.5 23t103 57.5t83.5 89.5l199 -174q-90 -130 -227.5 -200t-299.5 -70q-233 0 -409 141.5t-234 384.5h-157z" />
<glyph unicode="&#x2122;" horiz-adv-x="1423" d="M33 1317v115h555v-115h-209v-524h-135v524h-211zM688 793v639h64l272 -361l272 361h66v-639h-137v337l-201 -264l-201 264v-337h-135z" />
<glyph unicode="&#x25fc;" horiz-adv-x="1116" d="M0 0v1116h1116v-1116h-1116z" />
</font>
</defs>
</svg>
